<?xml version="1.0" standalone="yes"?>
<svg xmlns="http://www.w3.org/2000/svg" width="96" height="99">
<path style="fill:#fefefe; stroke:none;" d="M0 0L0 99L96 99L96 0L0 0z"/>
<path style="fill:#4750a6; stroke:none;" d="M47 17.4398C28.7537 20.2239 15.1967 34.3384 14.2091 53C13.0862 74.2192 33.7702 93.8686 55 90.561C73.2419 87.7189 86.8012 73.7024 87.7909 55C88.9149 33.7595 68.2486 14.1976 47 17.4398z"/>
<path style="fill:#90b1c6; stroke:none;" d="M54 17L55 18L54 17M38 19L39 20L38 19M63 19L64 20L63 19M62 34L63 35L62 34z"/>
<path style="fill:#fefefe; stroke:none;" d="M42 50L41 51L41 53C48.1805 54.9489 52.2285 49.6994 57 45.0015C58.7945 43.2347 61.2013 40.0559 64 40.0556C67.7413 40.0551 71.5974 45.598 74 48C76.8992 45.58 81.0259 38.7961 75.8511 36.1412C73.7199 35.0478 71.3494 36.2704 69.1157 35.9715C67.016 35.6904 65.1787 34.4446 62.9853 34.9622C54.392 36.9903 51.375 49.8145 42 50z"/>
<path style="fill:#90b1c6; stroke:none;" d="M65 34L66 35L65 34M59 36L60 37L59 36M68 36L69 37L68 36M58 37L59 38L58 37M57 38L58 39L57 38M56 39L57 40L56 39M55 40L56 41L55 40M16 41L17 42L16 41M63 41L45.0008 59C42.9924 61.0232 39.2072 63.8298 39.2068 67C39.2063 70.851 44.25 74.0613 47 76C45.2782 73.5503 41.0493 70.1561 41.0556 67C41.0618 63.8556 45.0073 61.0009 47 59C51.7958 54.1844 61.3782 47.6905 63 41M85 41L86 42L85 41z"/>
<path style="fill:#fefefe; stroke:none;" d="M63 43.3457C60.2355 44.0352 57.9244 47.0905 56 49.0008C51.3526 53.6141 43.5874 59.0396 40.7515 65C38.9342 68.8197 43.8722 74.6838 48 73.6543C50.7645 72.9648 53.0757 69.9095 55 67.9992C59.6474 63.3859 67.4126 57.9604 70.2485 52C72.0658 48.1803 67.1279 42.3162 63 43.3457z"/>
<path style="fill:#4750a6; stroke:none;" d="M44 68C51.6624 64.4268 61.4268 54.6624 65 47C57.3376 50.5733 47.5733 60.3376 44 68z"/>
<path style="fill:#90b1c6; stroke:none;" d="M46 49L47 50L46 49M14 50L15 51L14 50M41 50L42 51L41 50M87 50L88 51L87 50M43.6667 54.3333C43.2222 54.7778 44.2778 54.7222 44.3333 54.6667C44.7778 54.2222 43.7222 54.2778 43.6667 54.3333M14 57L15 58L14 57M87 57L88 58L87 57M16 66L17 67L16 66M85 66L86 67L85 66z"/>
<path style="fill:#fefefe; stroke:none;" d="M36 69L34 80L44 78C42.1591 74.0536 39.542 71.5031 36 69z"/>
<path style="fill:#90b1c6; stroke:none;" d="M83 71C76.5972 82.0768 64.9824 90.0596 52 90.7901C48.6766 90.9771 45.3244 90.1427 42 90C51.3882 96.4137 68.4811 89.4737 75.9961 82.8148C79.3004 79.887 84.086 75.7245 83 71M35 72L36 73L35 72M33.3333 77.6667C33.2778 77.7222 33.2222 78.7778 33.6667 78.3333C33.7222 78.2778 33.7778 77.2222 33.3333 77.6667M44 77L45 78L44 77M39 78L40 79L39 78M30 84L31 85L30 84M38 88C39.314 89.6179 39.8772 89.6933 42 90C40.6234 89.0886 39.5601 88.5962 38 88z"/>
</svg>
